<?xml version="1.0" encoding="UTF-8" standalone="no"?>
<!-- Created with Inkscape (http://www.inkscape.org/) -->
<svg id="svg2" xmlns:rdf="http://www.w3.org/1999/02/22-rdf-syntax-ns#" xmlns="http://www.w3.org/2000/svg" height="1160" width="1100" version="1.0" xmlns:cc="http://web.resource.org/cc/" xmlns:dc="http://purl.org/dc/elements/1.1/">
 <metadata id="metadata7">
  <rdf:RDF>
   <cc:Work rdf:about="">
    <dc:format>image/svg+xml</dc:format>
    <dc:type rdf:resource="http://purl.org/dc/dcmitype/StillImage"/>
   </cc:Work>
  </rdf:RDF>
 </metadata>
 <path id="path1920" d="m264.25 1008.2l0.25-101.7 13.24-0.28 13.24-0.28 0.26 41.78 0.26 41.78h52.5 52.5l0.26-41.75 0.26-41.75h13.49 13.49v102 102h-13.5-13.5v-48-48h-53-53v48 48h-13.5-13.51l0.26-101.8zm625.75-168.23v-102.03l13.53 0.28 13.54 0.28 0.21 41.5 0.22 41.5h52.5 52.5l0.3-41.75 0.2-41.75h13.5 13.5v102 102h-13.5-13.5v-48-48h-53-53v48 48h-13.5-13.5v-102.03zm-474.45 47.51c-3.19-1.91-6.04-3.48-6.34-3.48s-1.34-0.72-2.31-1.59c-1.67-1.51-1.56-1.94 2.16-8.01 2.16-3.53 5.23-8.78 6.81-11.66s8.49-14.92 15.34-26.74c6.85-11.83 18.44-31.85 25.75-44.5s14.13-24.35 15.16-26c1.02-1.65 2.27-3.95 2.79-5.11 0.51-1.15 2.42-4.53 4.25-7.5 1.83-2.96 8.39-14.17 14.58-24.89 6.19-10.73 11.62-20.08 12.07-20.79 0.78-1.24 2.29-0.57 12.01 5.3 0.93 0.56 2.49 1.49 3.48 2.07 1.65 0.97 1.22 2.08-5.06 12.99-3.78 6.56-8.1 13.86-9.6 16.23-1.5 2.36-3.16 5.29-3.7 6.5-0.53 1.21-1.8 3.55-2.83 5.2-1.02 1.65-5.26 8.9-9.43 16.11-4.16 7.21-8.49 14.64-9.61 16.5-1.13 1.87-2.37 4.06-2.75 4.89-0.58 1.25-3.03 5.5-10.34 18-5.86 10.01-10.67 18.33-12.72 22-1.38 2.47-3.99 6.97-5.78 10-1.8 3.02-4.23 7.22-5.4 9.32-3.7 6.65-20.31 35.11-21.56 36.91-1.1 1.61-1.63 1.47-6.97-1.75zm-365.55-157.98v-101.5h13.5 13.5v41.51 41.51l52.75-0.26 52.75-0.26v-41.25-41.25h13.75 13.75v101.5 101.5h-13.75-13.75v-47.75-47.75l-52.75-0.26-52.75-0.26v48.01 48.01h-13.5-13.5v-101.5zm794.98 47.86c-10.17-5.85-19.83-11.47-21.48-12.49-1.65-1.01-4.07-2.31-5.38-2.88s-3.56-1.88-5-2.9-5.1-3.2-8.12-4.84c-6.38-3.46-57.05-32.6-61.5-35.37-1.65-1.03-4.12-2.42-5.5-3.1s-5.88-3.19-10-5.58-8.18-4.73-9-5.21c-19.67-11.39-39.72-22.9-44-25.27-9.72-5.36-9.38-4.23-3.9-13.23 2.68-4.4 5.31-7.89 5.83-7.76 0.53 0.13 7.13 3.84 14.66 8.25 7.54 4.41 13.84 8.02 14.01 8.02s2.69 1.41 5.61 3.14c9.85 5.84 57.25 33.12 62.54 35.99 2.89 1.57 6.94 3.9 9 5.18 2.06 1.29 4.43 2.65 5.25 3.03s3.55 1.92 6.05 3.42c3.51 2.11 54.51 31.51 63.73 36.74 8.84 5.02 15.22 9.03 15.22 9.58 0 0.65-8.98 15.92-9.36 15.92-0.1 0-8.5-4.79-18.66-10.64zm-289.35-63.91c-17.95-3.57-30.03-9.78-41.67-21.41-11.89-11.9-18.66-23.81-24.42-43.04-4.26-14.2-5.04-20.62-4.99-41 0.06-21.65 1.46-30.3 7.37-45.64 11.76-30.48 37.68-50.88 71.03-55.91 43.97-6.63 79.02 12.21 93.59 50.31 1.53 3.99 2.49 7.54 2.14 7.89-0.95 0.96-24.85 6.51-25.45 5.91-0.28-0.28-1.54-3.02-2.78-6.09-5.58-13.73-15.24-24.86-25.97-29.94-8.3-3.92-19.27-5.81-29.82-5.12-18.49 1.21-30.3 6.17-41.75 17.55-8.98 8.92-13.54 17.36-17.6 32.54-2.45 9.16-2.68 11.64-2.74 29.5-0.05 15.22 0.33 21.29 1.72 27.63 2.35 10.68 6.88 22.28 11.3 28.94 7.53 11.34 21.15 20.52 35.41 23.87 8.5 2 23.56 1.99 31.36-0.03 19.17-4.94 33.89-19.61 40.3-40.16 1.85-5.92 3.04-8.25 4.21-8.25 1.96 0.01 25.1 5.63 25.72 6.26 1.66 1.65-8.25 25.03-14.39 33.95-11.05 16.06-27.27 26.96-47.25 31.75-10.13 2.43-34.24 2.69-45.32 0.49zm-326.09-2.75c-0.2-0.66-1.11-3.68-2.03-6.7-0.92-3.03-2.05-6.73-2.5-8.24-0.77-2.54-0.57-2.8 2.83-3.69 6.92-1.8 23.67-6.26 29.16-7.76 3.02-0.83 7.98-2.17 11-2.97 7.93-2.1 14.72-3.92 21-5.64 17.28-4.73 22.54-6.14 32.5-8.73 6.05-1.57 13.7-3.6 17-4.5s10.72-2.9 16.5-4.44 14.1-3.8 18.5-5.02c7.77-2.17 15.32-4.18 22.5-6.01 7.33-1.87 14.78-3.86 22.5-6.02 4.4-1.23 9.58-2.6 11.5-3.05 4.52-1.06 12.46-3.15 22.5-5.92 15.32-4.22 17.56-4.73 17.98-4.05 0.23 0.38 1.08 3.8 1.88 7.61 0.81 3.81 1.78 7.71 2.16 8.67 0.8 2.02 1.84 1.61-14.52 5.77-6.88 1.74-14.52 3.75-17 4.46-4.71 1.35-14.02 3.85-22.5 6.04-4.85 1.25-16.29 4.41-25.5 7.03-2.48 0.7-10.12 2.71-17 4.46s-14.52 3.76-17 4.47c-4.48 1.29-12.52 3.45-23 6.19-3.02 0.79-7.75 2.06-10.5 2.82s-7.7 2.1-11 2.98c-3.3 0.89-8.35 2.29-11.22 3.11-2.87 0.83-8.72 2.42-13 3.53-9.03 2.34-24.36 6.43-32.28 8.59-7.7 2.11-15.88 4.27-20 5.27-1.92 0.47-4.99 1.32-6.8 1.89-2.46 0.77-3.4 0.73-3.66-0.15zm333.46-331.2v-113.5h10 10v113.5 113.5h-10-10v-113.5zm-69-227.5v-102h13.5 13.5v41.5 41.5h52.5 52.5v-41.5-41.5h13.5 13.5v102 102h-13.5-13.5v-48.5-48.5h-52.5-52.5v48.5 48.5h-13.5-13.5v-102z"/>
</svg>
